<svg width="1726" height="333" viewBox="0 0 1726 333" fill="none" xmlns="http://www.w3.org/2000/svg">
<path fill-rule="evenodd" clip-rule="evenodd" d="M0 332.602C45.1374 274.065 73.2747 248.675 129 217.936C189 189.269 309 131.936 429 139.102C549 146.269 669 217.936 789 217.936C909 217.936 1029 146.269 1149 96.1022C1269 45.9356 1389 17.2689 1449 2.9356C1697 -20.3975 1760.21 95.9018 1709 332.602L1509 332.602H1449C1389 332.602 1269 332.602 1149 332.602C1029 332.602 909 332.602 789 332.602C669 332.602 549 332.602 429 332.602C309 332.602 189 332.602 129 332.602H69H0Z" fill="#E7DEFF"/>
</svg>
