<svg width="777" height="740" viewBox="0 0 777 740" fill="none" xmlns="http://www.w3.org/2000/svg">
<path fill-rule="evenodd" clip-rule="evenodd" d="M412 1.13617C511.367 1.13592 587 -10.8638 662.532 43.1362C736.113 95.742 709.403 153.525 725.408 241.75C738.276 312.68 786.302 375.598 775.404 446.84C763.332 525.768 724.842 601.089 662.532 652.822C597.271 707.005 510.835 752.531 426.755 736.308C345.261 720.583 319.875 617.459 250.249 573.271C174.069 524.924 41.2528 551.421 6.43092 469.55C-27.6816 389.346 83.9568 318.893 106.308 234.846C131.067 141.745 51.121 97.0552 132 43.1362C211.5 -9.86353 308 1.13643 412 1.13617Z" fill="#E7DEFF"/>
</svg>
