<svg width="720" height="660" viewBox="0 0 720 660" fill="none" xmlns="http://www.w3.org/2000/svg">
<path fill-rule="evenodd" clip-rule="evenodd" d="M426.755 -216.339C526.01 -211.623 630.416 -174.737 691.019 -97.9419C747.053 -26.9359 709.403 73.8884 725.408 162.114C738.276 233.044 786.302 295.961 775.404 367.204C763.332 446.132 724.842 521.453 662.532 573.186C597.271 627.368 510.835 672.895 426.755 656.671C345.261 640.947 319.875 537.823 250.249 493.635C174.069 445.287 41.2528 471.785 6.43092 389.913C-27.6816 309.71 83.9568 239.257 106.308 155.209C131.067 62.1084 79.6084 -50.3667 143.094 -123.976C208.865 -200.236 324.689 -221.189 426.755 -216.339Z" fill="#E7DEFF"/>
</svg>
